<?xml version="1.0" standalone="no"?>
<!DOCTYPE svg PUBLIC "-//W3C//DTD SVG 20010904//EN"
 "http://www.w3.org/TR/2001/REC-SVG-20010904/DTD/svg10.dtd">
<svg version="1.0" xmlns="http://www.w3.org/2000/svg"
 width="50" height="50" viewBox="0 0 700.000000 700.000000"
 preserveAspectRatio="xMidYMid meet">
<metadata>
Created by potrace 1.14, written by Peter Selinger 2001-2017
</metadata>
<g transform="translate(0.000000,700.000000) scale(0.100000,-0.100000)"
fill="#FF0000" stroke="none">
<path d="M3455 6590 c-16 -11 -46 -28 -65 -39 -60 -33 -364 -210 -376 -218 -5
-4 -23 -15 -40 -24 -16 -8 -102 -58 -191 -109 l-162 -94 27 -16 c24 -15 147
-86 427 -248 33 -19 76 -43 95 -54 19 -11 123 -71 230 -133 107 -62 211 -122
230 -132 19 -11 150 -87 290 -168 278 -161 550 -318 845 -488 105 -60 204
-117 220 -127 17 -9 181 -104 365 -210 184 -106 347 -201 362 -211 15 -11 29
-19 31 -19 2 0 82 -45 177 -100 95 -55 175 -100 178 -100 3 0 14 -7 24 -17 10
-9 21 -13 24 -10 4 3 6 232 6 508 l-1 502 -128 75 c-70 41 -229 133 -353 204
-124 72 -238 138 -255 148 -16 9 -91 52 -165 95 -74 43 -148 86 -165 95 -43
25 -155 89 -190 110 -17 9 -86 49 -153 89 -68 39 -127 71 -132 71 -6 0 -10 5
-10 10 0 6 -4 10 -9 10 -5 0 -89 46 -188 103 -98 57 -270 157 -383 222 -113
65 -273 158 -357 206 -84 49 -158 89 -165 88 -7 0 -26 -9 -43 -19z"/>
<path d="M1611 5524 c-79 -46 -145 -84 -147 -84 -2 0 -79 -45 -154 -90 -8 -5
-115 -66 -237 -137 l-223 -128 0 -35 c-1 -19 -1 -707 -1 -1528 -1 -1500 0
-1522 31 -1522 5 0 44 -21 87 -46 43 -26 94 -56 113 -67 19 -11 107 -61 195
-112 88 -51 178 -103 200 -115 22 -12 65 -37 95 -55 30 -18 87 -51 125 -74
l70 -41 3 725 2 725 85 0 c47 0 213 1 370 1 157 0 329 -1 383 -1 l97 0 0 -365
c0 -201 3 -365 8 -365 4 0 249 138 545 307 295 168 546 311 557 318 18 10 187
106 288 164 23 13 215 123 427 244 212 121 408 233 435 249 28 16 60 34 73 40
22 11 21 12 -20 36 -102 58 -130 73 -248 142 -69 40 -226 131 -350 203 -124
71 -281 162 -350 202 -69 40 -141 82 -160 93 -19 11 -75 43 -123 71 -49 28
-90 51 -91 51 -2 0 -56 32 -120 70 -65 39 -119 70 -120 70 -2 0 -97 55 -212
122 -115 67 -227 131 -249 143 -22 13 -95 55 -162 94 -67 39 -123 71 -125 71
-2 0 -3 -166 -3 -368 l0 -368 -466 0 -466 0 1 723 c1 477 -2 723 -9 722 -5 0
-75 -38 -154 -85z"/>
<path d="M6134 3061 c-7 -7 -351 -207 -514 -299 -25 -14 -78 -45 -118 -69 -41
-24 -75 -43 -77 -43 -2 0 -32 -17 -66 -38 -35 -22 -84 -50 -109 -64 -25 -14
-157 -90 -295 -170 -137 -79 -432 -249 -655 -377 -223 -129 -417 -242 -432
-252 -15 -11 -29 -19 -32 -19 -2 0 -37 -19 -78 -43 -40 -24 -93 -55 -118 -69
-25 -14 -99 -57 -165 -95 -66 -39 -140 -81 -165 -95 -60 -34 -341 -197 -408
-237 -29 -17 -56 -31 -59 -31 -4 0 -14 -6 -22 -14 -9 -7 -43 -28 -76 -46 -158
-86 -158 -86 -107 -113 15 -8 83 -47 152 -87 69 -40 145 -84 170 -98 25 -14
57 -33 72 -43 14 -11 30 -19 35 -19 4 0 24 -11 43 -23 19 -13 58 -36 85 -52
28 -15 107 -61 177 -101 l128 -75 557 322 c306 177 577 333 602 346 25 14 53
32 62 39 8 8 18 14 22 14 4 0 41 20 83 45 41 25 78 45 80 45 2 0 23 11 45 26
22 14 55 33 72 43 18 10 106 61 197 113 91 53 181 105 200 116 19 11 123 71
230 133 107 62 258 148 335 192 77 44 146 85 153 92 11 10 14 113 14 529 0
285 -2 519 -4 521 -2 3 -9 1 -14 -4z"/>
</g>
</svg>

